<svg width="512" height="512" viewBox="0 0 512 512" fill="none" xmlns="http://www.w3.org/2000/svg">
<rect width="512" height="512" fill="white"/>
<path d="M157.852 165H178.54L256.34 255.239L334.141 165H354.828V347H316.88V235.186L256.34 306.386L195.8 235.186V347H157.852V165Z" fill="#3BC9DB"/>
<path d="M410.438 240.272L435.612 254.278L460.805 268.284L485.934 282.307L460.76 296.322L435.577 282.316L410.411 268.293L372.216 289.565L372.216 261.554L385.255 254.278L410.438 240.272ZM372.225 317.594L372.225 345.632L435.594 310.345L410.438 296.322L372.225 317.594ZM385.264 198.551L372.225 205.818L372.225 233.838L410.438 212.557L435.612 226.589L460.805 240.586L485.934 226.589L460.769 212.565L435.586 198.551L410.42 184.545L385.264 198.551Z" fill="#3BC9DB"/>
<path d="M102.496 240.272L77.3217 254.278L52.1295 268.284L27 282.307L52.1743 296.322L77.3575 282.316L102.523 268.293L140.718 289.565L140.718 261.554L127.679 254.278L102.496 240.272ZM140.709 317.594L140.709 345.632L77.3396 310.345L102.496 296.322L140.709 317.594ZM127.67 198.551L140.709 205.818L140.709 233.838L102.496 212.557L77.3217 226.589L52.1295 240.586L27 226.589L52.1653 212.565L77.3485 198.551L102.514 184.545L127.67 198.551Z" fill="#3BC9DB"/>
</svg>
